<svg width="404.625048828125px" height="122.02138671875px" xmlns="http://www.w3.org/2000/svg" viewBox="47.687475585937506 13.989306640625003 404.625048828125 122.02138671875" style="background: rgb(255, 255, 255);" preserveAspectRatio="xMidYMid"><defs><linearGradient id="editing-glowing-gradient" x1="0.19909248842397587" x2="0.8009075115760241" y1="0.10068224497635359" y2="0.8993177550236464"><stop offset="0" stop-color="#67ff43"></stop><stop offset="1" stop-color="#90ffff"></stop></linearGradient><filter id="editing-glowing" x="-100%" y="-100%" width="300%" height="300%"><feGaussianBlur in="SourceGraphic" result="blur" stdDeviation="30"></feGaussianBlur><feMerge><feMergeNode in="blur"></feMergeNode><feMergeNode in="SourceGraphic"></feMergeNode></feMerge></filter></defs><g filter="url(#editing-glowing)"><g transform="translate(110.42000302672386, 98.67218780517578)"><path d="M24.96-4.80L24.96-4.80L24.96-4.80Q24.96-9.28 26.75-18.24L26.75-18.24L17.28-18.24L13.76 0L0.38 0L8.51-42.24L22.02-42.24L18.30-23.36L27.78-23.36L31.30-42.24L44.80-42.24L44.80-42.24Q43.90-37.50 42.75-32.19L42.75-32.19L40.58-21.76L40.58-21.76Q38.14-9.60 38.14-4.29L38.14-4.29L38.14-4.29Q38.14-2.11 38.85-0.90L38.85-0.90L38.85-0.90Q35.65 1.28 31.90 1.28L31.90 1.28L31.90 1.28Q28.16 1.28 26.56-0.51L26.56-0.51L26.56-0.51Q24.96-2.30 24.96-4.80ZM49.12-1.92L49.12-1.92L49.12-1.92Q47.62-3.58 46.94-6.21L46.94-6.21L46.94-6.21Q46.27-8.83 46.27-13.12L46.27-13.12L46.27-13.12Q46.27-17.41 47.74-21.31L47.74-21.31L47.74-21.31Q49.22-25.22 51.90-28.03L51.90-28.03L51.90-28.03Q57.41-33.92 66.50-33.92L66.50-33.92L66.50-33.92Q69.76-33.92 72.13-32.83L72.13-32.83L83.07-33.92L78.34-8.96L78.34-8.96Q78.14-8.19 78.14-6.78L78.14-6.78L78.14-6.78Q78.14-5.38 79.01-4.48L79.01-4.48L79.01-4.48Q79.87-3.58 81.15-3.46L81.15-3.46L81.15-3.46Q80.51-1.28 78.18 0L78.18 0L78.18 0Q75.84 1.28 73.22 1.28L73.22 1.28L73.22 1.28Q70.59 1.28 68.83 0.29L68.83 0.29L68.83 0.29Q67.07-0.70 66.56-2.37L66.56-2.37L66.56-2.37Q65.54-0.77 63.36 0.26L63.36 0.26L63.36 0.26Q61.18 1.28 58.27 1.28L58.27 1.28L58.27 1.28Q55.36 1.28 52.99 0.51L52.99 0.51L52.99 0.51Q50.62-0.26 49.12-1.92ZM62.62-27.90L62.62-27.90L62.62-27.90Q61.89-26.75 61.25-24.80L61.25-24.80L61.25-24.80Q60.61-22.85 59.55-17.63L59.55-17.63L59.55-17.63Q58.50-12.42 58.50-8.70L58.50-8.70L58.50-8.70Q58.50-4.99 59.07-3.90L59.07-3.90L59.07-3.90Q59.65-2.82 60.67-2.82L60.67-2.82L60.67-2.82Q62.72-2.82 64.22-4.77L64.22-4.77L64.22-4.77Q65.73-6.72 66.30-10.18L66.30-10.18L69.70-28.93L69.70-28.93Q68.35-30.08 66.78-30.08L66.78-30.08L66.78-30.08Q65.22-30.08 64.29-29.57L64.29-29.57L64.29-29.57Q63.36-29.06 62.62-27.90ZM103.04-30.34L103.04-30.34L103.04-30.34Q106.50-33.92 113.79-33.92L113.79-33.92L113.79-33.92Q117.82-33.92 120.03-31.78L120.03-31.78L120.03-31.78Q122.24-29.63 122.24-25.70L122.24-25.70L122.24-25.70Q122.24-21.76 120.03-18.98L120.03-18.98L120.03-18.98Q117.82-16.19 113.73-15.04L113.73-15.04L113.73-15.04Q114.05-13.76 114.50-12.42L114.50-12.42L115.39-9.86L115.39-9.86Q116.61-6.59 117.57-5.44L117.57-5.44L117.57-5.44Q118.53-4.29 119.81-3.90L119.81-3.90L119.81-3.90Q119.10-1.28 116.54 0.13L116.54 0.13L116.54 0.13Q114.50 1.28 111.68 1.28L111.68 1.28L111.68 1.28Q103.42 1.28 102.34-11.46L102.34-11.46L102.34-11.46Q102.14-13.25 102.14-15.04L102.14-15.04L102.14-15.04Q105.34-15.94 107.58-18.94L107.58-18.94L107.58-18.94Q109.82-21.95 109.82-25.47L109.82-25.47L109.82-25.47Q109.82-28.99 107.33-28.99L107.33-28.99L107.33-28.99Q105.54-28.99 104.13-27.01L104.13-27.01L104.13-27.01Q102.72-25.02 102.08-21.63L102.08-21.63L97.86 0L84.93 1.28L93.89-44.80L106.75-46.08L105.28-38.46L105.28-38.46Q104.32-33.09 103.04-30.34ZM145.73-2.69L145.73-2.69L145.73-2.69Q142.66 1.28 135.04 1.28L135.04 1.28L135.04 1.28Q131.07 1.28 128.19-1.12L128.19-1.12L128.19-1.12Q125.31-3.52 125.31-6.98L125.31-6.98L125.31-6.98Q125.31-8.90 125.50-9.86L125.50-9.86L129.79-32.64L142.78-33.92L138.11-9.22L138.11-9.22Q137.86-7.81 137.86-6.98L137.86-6.98L137.86-6.98Q137.86-3.26 140.10-3.26L140.10-3.26L140.10-3.26Q142.59-3.26 144.38-6.66L144.38-6.66L144.38-6.66Q144.96-7.74 145.22-9.15L145.22-9.15L149.76-32.64L162.37-33.92L157.63-8.96L157.63-8.96Q157.44-8 157.44-6.98L157.44-6.98L157.44-6.98Q157.44-5.95 158.02-4.83L158.02-4.83L158.02-4.83Q158.59-3.71 160.45-3.46L160.45-3.46L160.45-3.46Q160.06-1.92 158.72-0.90L158.72-0.90L158.72-0.90Q155.90 1.28 152.86 1.28L152.86 1.28L152.86 1.28Q149.82 1.28 148.03 0.19L148.03 0.19L148.03 0.19Q146.24-0.90 145.73-2.69ZM192.90 1.28L192.90 1.28L192.90 1.28Q185.15 1.28 185.15-4.74L185.15-4.74L185.15-4.74Q185.22-6.40 185.73-9.22L185.73-9.22L186.88-15.10L186.88-15.10Q188.61-23.42 188.61-25.28L188.61-25.28L188.61-25.28Q188.61-28.99 186.43-28.99L186.43-28.99L186.43-28.99Q182.78-28.99 180.86-19.46L180.86-19.46L177.09 0L164.22 1.28L170.88-32.70L181.38-33.92L180.35-27.65L180.35-27.65Q183.36-33.92 192.58-33.92L192.58-33.92L192.58-33.92Q197.06-33.92 198.94-32.03L198.94-32.03L198.94-32.03Q200.83-30.14 200.83-25.92L200.83-25.92L200.83-25.92Q200.83-21.95 198.78-12.67L198.78-12.67L198.78-12.67Q197.82-8.51 197.82-6.94L197.82-6.94L197.82-6.94Q197.82-5.38 198.69-4.48L198.69-4.48L198.69-4.48Q199.55-3.58 200.83-3.46L200.83-3.46L200.83-3.46Q200.19-1.28 197.98 0L197.98 0L197.98 0Q195.78 1.28 192.90 1.28ZM219.90 1.28L219.90 1.28L219.90 1.28Q205.82 1.28 205.82-11.97L205.82-11.97L205.82-11.97Q205.82-21.38 211.01-27.46L211.01-27.46L211.01-27.46Q216.51-33.92 226.05-33.92L226.05-33.92L226.05-33.92Q232.96-33.92 236.48-30.72L236.48-30.72L236.48-30.72Q240.00-27.52 240.00-20.80L240.00-20.80L240.00-20.80Q240.00-10.56 234.50-4.61L234.50-4.61L234.50-4.61Q229.12 1.28 219.90 1.28ZM221.57-26.56L221.57-26.56L221.57-26.56Q220.80-24.83 220.19-22.24L220.19-22.24L220.19-22.24Q219.58-19.65 218.82-15.55L218.82-15.55L218.82-15.55Q218.05-11.46 218.05-6.40L218.05-6.40L218.05-6.40Q218.05-4.74 218.59-3.65L218.59-3.65L218.59-3.65Q219.14-2.56 220.61-2.56L220.61-2.56L220.61-2.56Q222.08-2.56 223.01-3.26L223.01-3.26L223.01-3.26Q223.94-3.97 224.64-5.63L224.64-5.63L224.64-5.63Q225.92-8.58 226.94-14.05L226.94-14.05L226.94-14.05Q227.97-19.52 228.06-21.89L228.06-21.89L228.06-21.89Q228.16-24.26 228.16-26.02L228.16-26.02L228.16-26.02Q228.16-27.78 227.65-28.93L227.65-28.93L227.65-28.93Q227.14-30.08 225.70-30.08L225.70-30.08L225.70-30.08Q224.26-30.08 223.30-29.18L223.30-29.18L223.30-29.18Q222.34-28.29 221.57-26.56ZM270.85 1.28L270.85 1.28L270.85 1.28Q263.10 1.28 263.10-4.74L263.10-4.74L263.10-4.74Q263.17-6.40 263.68-9.22L263.68-9.22L264.83-15.10L264.83-15.10Q266.56-23.42 266.56-25.28L266.56-25.28L266.56-25.28Q266.56-28.99 264.38-28.99L264.38-28.99L264.38-28.99Q260.74-28.99 258.82-19.46L258.82-19.46L255.04 0L242.18 1.28L248.83-32.70L259.33-33.92L258.30-27.65L258.30-27.65Q261.31-33.92 270.53-33.92L270.53-33.92L270.53-33.92Q275.01-33.92 276.90-32.03L276.90-32.03L276.90-32.03Q278.78-30.14 278.78-25.92L278.78-25.92L278.78-25.92Q278.78-21.95 276.74-12.67L276.74-12.67L276.74-12.67Q275.78-8.51 275.78-6.94L275.78-6.94L275.78-6.94Q275.78-5.38 276.64-4.48L276.64-4.48L276.64-4.48Q277.50-3.58 278.78-3.46L278.78-3.46L278.78-3.46Q278.14-1.28 275.94 0L275.94 0L275.94 0Q273.73 1.28 270.85 1.28Z" fill="url(#editing-glowing-gradient)"></path></g></g><style>text {
  font-size: 64px;
  font-family: Arial Black;
  dominant-baseline: central;
  text-anchor: middle;
}</style></svg>